<?xml version="1.0" encoding="utf-8"?>
<!-- Generator: Adobe Illustrator 25.4.1, SVG Export Plug-In . SVG Version: 6.00 Build 0)  -->
<svg version="1.1" id="Layer_1" xmlns="http://www.w3.org/2000/svg" xmlns:xlink="http://www.w3.org/1999/xlink" width="20px" height="16px"
	 viewBox="0 0 20 16" style="enable-background:new 0 0 20 16;" xml:space="preserve">
<style type="text/css">
	.st0{fill:#FFBE2E;}
</style>
<g>
	<path class="st0" d="M8.9,9.7C7.2,11.5,5.7,13.3,4,15c-0.4,0.4-1,0.5-1.5,0.8c-0.1-0.1-0.2-0.3-0.2-0.4c2-2.2,3.9-4.3,6-6.6
		C6.4,6,4.4,3.2,2.3,0.1c1.6,0,3,0,4.3,0.1c0.3,0,0.6,0.4,0.8,0.7c1.1,1.6,2.2,3.2,3.5,5c1.6-1.7,3-3.4,4.6-5c0.4-0.4,1-0.6,1.5-0.9
		c0.1,0.1,0.2,0.2,0.3,0.4c-1.6,1.8-3.2,3.6-4.9,5.3c-0.8,0.8-0.8,1.3-0.2,2.2c1.8,2.6,3.5,5.2,5.4,8c-1.6,0-2.9,0-4.2-0.1
		c-0.4,0-0.8-0.5-1-0.8C11.3,13.3,10.1,11.6,8.9,9.7z M15.7,14.8c-0.3-0.4-0.5-0.8-0.8-1.2C12.3,9.8,9.6,6.1,7.1,2.2
		c-0.7-1.1-1.5-1.3-2.7-1C4.6,1.7,4.8,2,5.1,2.4c2.6,3.8,5.3,7.6,7.8,11.4C13.6,14.8,14.3,15.2,15.7,14.8z"/>
</g>
</svg>
